<?xml version="1.0" encoding="UTF-8" standalone="no"?><!DOCTYPE svg PUBLIC "-//W3C//DTD SVG 1.1//EN" "http://www.w3.org/Graphics/SVG/1.1/DTD/svg11.dtd"><svg width="100%" height="100%" viewBox="0 0 144 187" version="1.1" xmlns="http://www.w3.org/2000/svg" xmlns:xlink="http://www.w3.org/1999/xlink" xml:space="preserve" xmlns:serif="http://www.serif.com/" style="fill-rule:evenodd;clip-rule:evenodd;stroke-linejoin:round;stroke-miterlimit:2;"><g><path d="M10.223,103.302c4.466,-1.069 4.336,-0.871 8.853,-0.334c9.695,3.449 9.381,3.746 18.158,7.775c9.346,4.29 -12.104,-40.924 29.837,-69.333c1.571,-1.064 0.416,-22.55 4.576,-39.727c1.481,-6.114 3.134,6.353 3.506,6.967c3.777,6.236 4.386,25.979 6.172,26.06c7.946,0.364 4.528,9.445 7.356,12.642c12.288,13.888 10.315,15.025 14.956,27.305c1.593,4.215 11.276,-19.993 18.822,-18.607c11.065,2.032 -1.266,43.929 -1.3,45.871c-0.037,2.086 14.952,-2.683 21.144,9.166c7.686,14.707 -15.301,26.607 -15.782,26.964c-1.981,1.47 3.805,20.464 -3.214,24.745c-7.18,4.379 -20.505,-21.394 -21.222,-22.516c-1.766,-2.764 -3.76,2.977 -7.907,7.616c-4.237,4.739 1.159,5.007 8.059,27.337c8.766,28.37 -12.545,-6.286 -13.174,-4.5c-7.792,22.103 -6.837,-13.848 -10.744,-13.455c-13.743,1.381 -14.122,-1.828 -14.605,-0.762c-1.087,2.403 -10.506,23.22 -16.953,28.27c-12.109,9.486 7.017,-31.248 8.199,-33.764c0.813,-1.731 -6.455,-5.815 -10.768,-18.004c-1.643,-4.642 -3.285,-2.157 -7.091,0.929c-18.633,15.106 -38.732,-4.317 -36.996,-20.983c1.372,-1.923 2.745,-3.846 4.117,-5.768c0.745,-0.636 1.49,-1.273 2.234,-1.909c1.255,-0.661 2.511,-1.323 3.766,-1.984Z" style="fill:#374458;"/><path d="M76.35,53.693l0.648,2.07c5.355,22.038 6.254,25.014 6.901,27.16c1.12,1.546 0.719,1.976 2.541,2.413c6.14,1.472 4.916,4.429 11.067,5.177c4.398,10.248 5.251,39.313 -3.295,35.948c-11.424,-4.499 -13.707,27.513 -16.045,28.279c-34.184,11.196 -51.702,-72.306 -18.708,-104.828c13.713,-13.517 15.154,-0.383 16.891,3.781Z" style="fill:#f4f2ec;"/><path d="M102.207,78.81c-7.902,19.215 -12.652,4.031 -12.515,3.01c2.468,-18.353 -4.945,-39.861 4.35,-23.852c4.257,7.332 7.668,19.122 8.165,20.842Z" style="fill:#f2f3ef;"/><path d="M12.03,105.837c6.991,-3.431 20.922,5.477 26.132,8.084l-0.569,1.31c-3.988,-0.378 -3.771,1.52 -1.979,8.444c-1.108,-0.273 -2.217,-0.546 -3.325,-0.819c-4.106,-4.498 -26.366,-0.206 -28.614,0.227c-0.308,-0.626 -0.615,-1.251 -0.923,-1.877c13.824,-3.165 13.92,-0.799 28.172,-1.591c8.347,-0.464 -4.328,-1.785 -4.732,-1.827c-19.031,-1.983 -23.756,1.529 -21.653,-3.306c1.05,-2.413 21.043,2.487 25.65,1.547c1.068,-1.45 0.74,-1.442 0.999,-3.195c-16.082,-4.997 -17.792,-6.11 -19.16,-7Z" style="fill:#a8b0b5;"/><path d="M123.229,59.205c-13.752,20.207 -32.165,44.848 -16.738,25.906c8.414,-10.331 7.623,-10.825 17.833,-19.398l0.164,2.056c-1.84,1.799 -16.285,15.922 -21.454,23.965c-0.296,0.46 1.586,0.552 1.29,1.012l-2.554,2.894c-1.247,-4.486 -0.766,-4.626 -2.496,-6.815c18.737,-27.684 17.559,-31.557 23.954,-29.62Z" style="fill:#b5bdc0;"/><path d="M71.345,29.612c0.446,-18.724 1.245,-20.428 1.98,-19.08c1.585,2.904 4.992,28.524 5.324,31.02c-0.16,0.706 -0.32,1.412 -0.48,2.117c-0.014,1.323 -0.028,2.646 -0.042,3.969l-0.988,1.227l-1.889,-4.15c-0.943,-1.037 -1.885,-2.075 -2.828,-3.112c0.754,-6.154 1.03,-6.099 -1.078,-11.99Z" style="fill:#a1b1bd;"/><path d="M5.789,109.559c1.726,1.049 2.284,-1.055 24.402,6.473c-4.608,0.939 -24.601,-3.96 -25.65,-1.547c-2.103,4.835 2.621,1.323 21.653,3.306c0.404,0.042 13.079,1.363 4.732,1.827c-14.252,0.792 -14.348,-1.575 -28.172,1.591c-1.715,-6.084 -1.421,-7.14 3.036,-11.648Z" style="fill:#edefec;"/><path d="M82.151,103.146c6.282,2.856 6.355,2.158 13.14,4.063c4.989,1.401 -10.976,8.243 -28.098,-16.296c-14.695,-21.061 -18.701,-19.254 -17.57,-21.14c4.647,-7.747 13.796,18.876 32.528,33.373Z" style="fill:#989da0;"/><path d="M102.331,121.967c0.704,0.999 1.407,1.998 2.111,2.997c-0.243,0.63 -0.486,1.261 -0.728,1.891c-0.018,0.629 -1.461,0.542 -1.48,1.171c-0.011,0.363 0.157,0.297 2.118,4.012l1.369,1.777c-0.734,5.614 15.161,23.364 15.601,23.503c0.594,0.187 0.83,-1.395 1.424,-1.208l1.109,1.171c-4.819,10.378 -14.671,-11.043 -21.218,-21.353c-3.352,-5.279 -5.136,-5.314 -3.097,-7.748c0.35,-0.418 1.584,-1.891 2.791,-6.213Z" style="fill:#cfd7da;"/><path d="M123.577,75.832l0.143,0.985c-1.553,1.43 -30.347,27.941 -18.412,18.898c12.108,-9.174 11.659,-9.741 17.073,-11.926l-0.547,3.03c-4.805,1.563 -4.396,2.204 -19.39,13.077c-0.224,-1.419 -0.449,-2.838 -0.673,-4.257l2.554,-2.894c2.323,-2.343 14.39,-16.233 19.252,-16.913Z" style="fill:#939ba0;"/><path d="M91.394,146.846c-0.324,-10.946 -0.919,-11.14 -1.278,-11.662c-6.653,-9.669 5.028,-5.654 5.881,-4.748c7.017,7.465 1.822,8.396 -4.603,16.409Z" style="fill:#f3f4f2;"/><path d="M59.212,153.238c-5.267,14.398 -5.076,14.911 -4.605,16.172c-0.346,0.597 -13.432,23.188 -7.089,4.901c7.478,-21.559 9.779,-21.294 11.694,-21.073Z" style="fill:#b7c0c7;"/><path d="M90.481,167.101c-1.513,-6.593 0.387,-15.218 3.405,-7.671c1.333,3.333 10.79,28.375 5.783,21.43c-4.851,-6.729 -3.997,-7.093 -9.188,-13.759Z" style="fill:#b8c4ca;"/><path d="M84.766,141.099c1.326,2.608 1.369,2.321 2.633,4.788c-1.237,2.959 -2.494,2.874 -0.799,7.076c-0.811,1.554 -4.137,2.353 1.386,8.078c-0.702,6.649 -0.786,6.524 -0.816,7.095c-1.313,5.889 -1.315,6.131 -1.82,6.077c-0.517,-0.055 -4.087,-17.999 -2.648,-25.113c0.649,-3.21 1.876,-7.369 2.063,-8.003Z" style="fill:#b9c4ca;"/><path d="M102.459,118.985c10.375,5.085 11.588,7.643 18.142,9.961c0.162,0.651 0.261,0.596 2.207,8.088l-1.321,0.673c-1.522,-1.336 -14.82,-13.005 -18.962,-16.765l-0.268,-0.949l0.201,-1.008Z" style="fill:#f4f5f3;"/><path d="M82.15,46.677c-0.711,-3.55 -0.709,-4.578 -0.709,-4.981c0.014,-13.01 4.611,4.228 5.125,11.921c-2.854,4.068 -2.398,4.295 -1.062,9.212c0.629,2.313 -0.266,2.143 -2.545,6.06c-0.175,-0.901 -0.419,-0.824 -2.668,-11.155c2.141,-2.194 1.983,-2.189 2.12,-5.044c1.292,-3.272 2.488,-3.779 -0.261,-6.014Z" style="fill:#b7c2c8;"/><path d="M104.442,124.963c12.41,11.655 11.861,15.769 17.046,12.743l1.321,-0.673c0.037,0.633 0.758,6.039 1.115,8.004c-3.221,1.067 -3.605,0.181 -20.21,-18.183c0.243,-0.63 0.486,-1.261 0.728,-1.891Z" style="fill:#ecefef;"/><path d="M124.489,67.768c-0.203,4.147 -0.275,3.992 -0.912,8.064c-4.862,0.68 -16.929,14.57 -19.252,16.913c0.296,-0.46 -1.586,-0.552 -1.29,-1.012c5.169,-8.043 19.614,-22.166 21.454,-23.965Z" style="fill:#f1f4f2;"/><path d="M104.351,132.038c0.324,0.315 0.694,-1.21 1.018,-0.896c2.094,2.031 10.734,15.566 18.913,17.986c-0.002,4.282 0.114,4.063 -0.428,8.152l-1.109,-1.171c-8.665,-11.199 -8.7,-11.004 -17.025,-22.295l-1.369,-1.777Z" style="fill:#f1f4f3;"/><path d="M123.229,59.205c1.268,3.194 1.034,3.04 1.095,6.507c-10.21,8.574 -9.419,9.067 -17.833,19.398c-15.427,18.942 2.986,-5.699 16.738,-25.906Z" style="fill:#f1f4f2;"/><path d="M3.676,123.085c2.248,-0.433 24.507,-4.725 28.614,-0.227c-0.396,1.239 -0.138,1.32 -1.311,1.999c-0.639,-0.353 -1.277,-0.707 -1.916,-1.06c-1.779,-2.364 -15.697,-0.374 -22.062,3.277c-1.108,-1.329 -2.216,-2.658 -3.324,-3.987Z" style="fill:#eaeceb;"/><path d="M34.221,127.051c1.944,0.937 1.771,0.936 1.944,0.937c1.071,0.011 0.326,-1.192 1.398,-1.181l1.573,2.186c-1.643,1.443 -8.813,9.536 -15.017,8.221c0.57,-0.804 12.404,-9.419 10.125,-8.48c-3.938,1.623 -7.553,3.941 -11.337,5.897c-0,0 -1.933,-0.99 -2.101,-1.076c4.472,-2.169 8.944,-4.337 13.416,-6.506Z" style="fill:#acb6ba;"/><path d="M76.998,55.763c2.098,0.116 2.19,-0.002 3.293,1.972c2.249,10.331 2.493,10.254 2.668,11.155c1.498,5.476 1.349,5.449 1.54,5.898c0.787,4.009 0.733,3.823 1.801,7.63c-0.801,0.169 -1.601,0.337 -2.402,0.506c-0.648,-2.146 -1.546,-5.123 -6.901,-27.16Z" style="fill:#566477;"/><path d="M103.713,126.855c16.605,18.364 16.989,19.25 20.21,18.183c0.12,1.364 0.239,2.727 0.359,4.091c-8.179,-2.42 -16.819,-15.955 -18.913,-17.986c-0.324,-0.315 -0.694,1.21 -1.018,0.896c-1.961,-3.715 -2.128,-3.65 -2.118,-4.012c0.018,-0.629 1.461,-0.542 1.48,-1.171Z" style="fill:#a9b0b4;"/><path d="M102.913,111.104c0.123,-0.052 -0.004,-0.822 15.044,0.714l0.666,7.138c-4.182,-3.32 -4.548,-2.483 -15.3,-5.966c-0.137,-0.629 -0.274,-1.257 -0.41,-1.886Z" style="fill:#f2f4f1;"/><path d="M118.569,101.916l-0.548,6.949c-3.597,1.464 -13.767,-0.595 -14.94,-0.833l0.013,-1.236c8.079,-1.93 8.373,-0.831 15.475,-4.881Z" style="fill:#f4f6f3;"/><path d="M121.834,86.819l-1.202,5.111c-1.491,0.618 -3.585,1.486 -18.081,8.94l-0.106,-0.974c14.994,-10.874 14.585,-11.515 19.39,-13.077Z" style="fill:#edf0f0;"/><path d="M123.72,76.817c-0.446,2.324 -0.892,4.648 -1.339,6.971c-5.414,2.185 -4.965,2.753 -17.073,11.926c-11.936,9.043 16.859,-17.468 18.412,-18.898Z" style="fill:#f0f3f3;"/><path d="M32.29,122.857c1.108,0.273 2.217,0.546 3.325,0.819c1.305,1.657 1.83,2.861 1.948,3.132c-1.072,-0.011 -0.327,1.192 -1.398,1.181c-0.173,-0.002 0,-0 -1.944,-0.937c-0.512,0.1 -0.57,-1.233 -1.082,-1.133c-1.62,0.317 -13.361,2.616 -19.289,7.329c-0.934,-0.741 -1.867,-1.481 -2.801,-2.222c2.97,-1.134 18.329,-5.694 19.929,-6.169c1.173,-0.678 0.915,-0.76 1.311,-1.999Z" style="fill:#a4acb0;"/><path d="M141.337,116.058c-0.066,2.283 0.139,2.125 -0.335,4.228c-10.011,-1.114 -9.862,-0.254 -19.683,-1.249l-0.133,-1.098c5.156,-1.859 5.248,-1.11 20.151,-1.881Z" style="fill:#f1f4f2;"/><path d="M102.938,114.604c10.894,4.216 10.647,4.954 15.693,5.314l1.148,5.033c-0.626,0.079 -0.676,1.296 -1.302,1.375c-0.063,0.008 -5.098,-4.579 -15.172,-9.312c-0.122,-0.804 -0.244,-1.607 -0.367,-2.411Z" style="fill:#f1f4f0;"/><path d="M119.807,95.877c-0.413,2.013 -0.825,4.027 -1.238,6.04c-7.925,0.367 -7.766,0.483 -15.626,2.141l-0.042,-1.016c12.44,-6.182 12.28,-6.026 13.334,-6.578c1.701,-0.891 1.656,-0.272 3.572,-0.587Z" style="fill:#f1f3f1;"/><path d="M105.72,133.815c8.325,11.29 8.36,11.096 17.025,22.295c-0.594,-0.187 -0.83,1.395 -1.424,1.208c-0.44,-0.139 -16.335,-17.889 -15.601,-23.503Z" style="fill:#979ea0;"/><path d="M34.221,127.051c-4.472,2.169 -8.944,4.337 -13.416,6.506c-0.885,0.714 -1.769,1.429 -2.654,2.143c-1.434,-0.818 -2.867,-1.635 -4.301,-2.453c5.927,-4.713 17.669,-7.012 19.289,-7.329c0.512,-0.1 0.57,1.233 1.082,1.133Z" style="fill:#f3f5f4;"/><path d="M121.633,120.979c9.122,0.595 9.045,0.129 18.079,2.045c-1.059,1.318 -2.118,2.637 -3.177,3.955c-4.922,-3.318 -5.301,-2.081 -14.408,-3.807c-0.164,-0.731 -0.329,-1.462 -0.493,-2.193Z" style="fill:#f0f4f3;"/><path d="M86.566,53.617c0.113,1.347 1.18,14.082 1.272,16.853c-1.88,2.16 -1.924,1.924 -3.338,4.317c-0.191,-0.448 -0.042,-0.422 -1.54,-5.898c2.279,-3.918 3.174,-3.748 2.545,-6.06c-1.336,-4.917 -1.792,-5.144 1.062,-9.212Z" style="fill:#bec8cf;"/><path d="M137.714,109.657c1.987,2.074 1.737,1.978 3.122,4.278c-10.099,-0.295 -10.045,-0.388 -19.731,2.203l-0.396,-2.172c5.078,-2.873 11.822,-1.418 17.005,-4.31Z" style="fill:#eff4f3;"/><path d="M102.525,120.942c4.143,3.76 17.441,15.429 18.962,16.765c-5.185,3.026 -4.636,-1.088 -17.046,-12.743c-0.704,-0.999 -1.407,-1.998 -2.111,-2.997l0.194,-1.025Z" style="fill:#8d959a;"/><path d="M29.063,123.796c0.639,0.353 1.277,0.707 1.916,1.06c-1.6,0.475 -16.958,5.035 -19.929,6.169l-2.202,-1.87c0.933,-0.278 -0.163,-1.137 0.781,-1.418c1.521,-0.452 1.44,-0.292 19.434,-3.941Z" style="fill:#f0f2f0;"/><path d="M7.615,107.536c9.716,3.406 9.819,2.461 19.476,5.531c2.126,0.676 1.95,0.161 4.098,-0.23c-0.259,1.752 0.069,1.745 -0.999,3.195c-22.118,-7.527 -22.676,-5.423 -24.402,-6.473c0.609,-0.674 1.218,-1.349 1.826,-2.023Z" style="fill:#a3a9ac;"/><path d="M12.03,105.837c1.368,0.89 3.078,2.003 19.16,7c-2.148,0.391 -1.972,0.906 -4.098,0.23c-9.657,-3.07 -9.76,-2.125 -19.476,-5.531c1.472,-0.566 2.943,-1.133 4.415,-1.699Z" style="fill:#ecf0f2;"/><path d="M29.063,123.796c-17.994,3.649 -17.913,3.489 -19.434,3.941c-0.944,0.281 0.152,1.14 -0.781,1.418c-0.616,-0.694 -1.232,-1.388 -1.847,-2.082c6.365,-3.65 20.283,-5.64 22.062,-3.277Z" style="fill:#9ca3a6;"/><path d="M103.305,117.015c10.074,4.733 15.108,9.32 15.172,9.312c0.626,-0.079 0.676,-1.296 1.302,-1.375l0.823,3.994c-6.554,-2.318 -7.768,-4.875 -18.142,-9.961c0.282,-0.657 0.564,-1.313 0.846,-1.97Z" style="fill:#a2aaac;"/><path d="M121.319,119.038c9.821,0.995 9.672,0.135 19.683,1.249l-1.29,2.737c-9.034,-1.916 -8.957,-1.45 -18.079,-2.045l-0.314,-1.941Z" style="fill:#9ea6a9;"/><path d="M140.836,113.935l0.501,2.123c-14.903,0.771 -14.994,0.022 -20.151,1.881c-0.027,-0.6 -0.054,-1.2 -0.081,-1.8c9.685,-2.592 9.632,-2.498 19.731,-2.203Z" style="fill:#969ea3;"/><path d="M120.632,91.93c-0.275,1.316 -0.55,2.631 -0.825,3.947c-1.916,0.315 -1.87,-0.304 -3.572,0.587c-1.054,0.552 -0.894,0.396 -13.334,6.578c-0.117,-0.724 -0.234,-1.448 -0.351,-2.171c14.497,-7.454 16.591,-8.322 18.081,-8.94Z" style="fill:#a2a9ad;"/><path d="M38.162,113.922c2.637,0.691 4.407,11.334 3.126,13.42c-0.642,-0.808 -5.596,-3.428 -3.695,-12.109l0.569,-1.31Z" style="fill:#eef3f6;"/><path d="M135.832,107.629c0.627,0.676 1.255,1.352 1.882,2.028c-5.183,2.892 -11.926,1.437 -17.005,4.31l-0.12,-4.025l0.898,-0.48c0.632,0.136 0.303,1.562 0.935,1.698c1.816,0.392 1.753,-0.055 13.409,-3.531Z" style="fill:#a5aeb1;"/><path d="M59.212,153.238c4.061,2.611 -0.241,9.958 -4.605,16.172c-0.47,-1.26 -0.662,-1.774 4.605,-16.172Z" style="fill:#dbe3e7;"/><path d="M103.324,112.989c10.752,3.483 11.117,2.646 15.3,5.966l0.007,0.963c-5.046,-0.36 -4.798,-1.099 -15.693,-5.314c0.129,-0.538 0.257,-1.077 0.386,-1.615Z" style="fill:#a2a9ab;"/><path d="M78.127,47.638c0.577,0.28 1.153,0.561 1.73,0.841c2.559,4.206 2.534,4.154 2.554,4.212c-0.137,2.855 0.021,2.85 -2.12,5.044c-1.103,-1.974 -1.195,-1.856 -3.293,-1.972l-0.648,-2.07c0.568,-0.365 1.457,0.393 2.025,0.028c0.753,-0.485 -0.123,-2.77 -0.209,-2.994c-0.254,-0.662 -0.773,-1.2 -1.027,-1.861l0.988,-1.227Z" style="fill:#909eaa;"/><path d="M118.569,101.916c-7.102,4.05 -7.396,2.95 -15.475,4.881c-0.05,-0.913 -0.101,-1.827 -0.151,-2.74c7.86,-1.658 7.701,-1.773 15.626,-2.141Z" style="fill:#a2a8ac;"/><path d="M37.594,115.232c-1.902,8.681 3.053,11.302 3.695,12.109c-0.718,0.551 -1.435,1.101 -2.153,1.652l-1.573,-2.186c-0.118,-0.27 -0.642,-1.475 -1.948,-3.132c-1.792,-6.924 -2.009,-8.822 1.979,-8.444Z" style="fill:#75838e;"/><path d="M103.081,108.033c1.173,0.238 11.343,2.297 14.94,0.833l-0.064,2.952c-15.047,-1.536 -14.921,-0.767 -15.044,-0.714c0.056,-1.023 0.112,-2.047 0.167,-3.07Z" style="fill:#aab0b3;"/><path d="M122.471,124.989c6.248,2.068 6.919,0.137 12.234,4.127c-0.988,0.783 -1.975,1.566 -2.963,2.349c-2.921,-1.687 -2.716,-1.758 -5.87,-2.895l-2.566,-0.485c-0.278,-1.032 -0.556,-2.064 -0.834,-3.096Z" style="fill:#f2f6f6;"/><path d="M20.805,133.556c0.168,0.086 2.101,1.076 2.101,1.076c3.784,-1.956 7.399,-4.274 11.337,-5.897c2.279,-0.939 -9.554,7.676 -10.125,8.48c-3.175,-0.18 -3.031,-0.353 -5.967,-1.515c0.885,-0.714 1.769,-1.429 2.654,-2.143Z" style="fill:#e0e5e7;"/><path d="M131.578,105.808c-5.57,3.287 -5.722,2.336 -10.09,3.653l-0.898,0.48c0.579,-9.591 10.156,-4.569 10.988,-4.133Z" style="fill:#c3cacd;"/><path d="M122.126,123.172c9.107,1.726 9.486,0.489 14.408,3.807c-0.61,0.712 -1.22,1.424 -1.83,2.137c-5.315,-3.99 -5.986,-2.059 -12.234,-4.127l-0.345,-1.817Z" style="fill:#a0a9ad;"/><path d="M131.578,105.808c1.418,0.607 2.836,1.214 4.254,1.82c-11.656,3.476 -11.593,3.923 -13.409,3.531c-0.632,-0.136 -0.303,-1.562 -0.935,-1.698c4.368,-1.317 4.52,-0.367 10.09,-3.653Z" style="fill:#eaf0f1;"/><path d="M87.838,70.471c-0.334,6.137 0.927,6.19 -1.537,11.947c-1.069,-3.808 -1.015,-3.622 -1.801,-7.63c1.415,-2.393 1.458,-2.157 3.338,-4.317Z" style="fill:#d1dce2;"/><path d="M88.647,140.205c-0.098,0.617 -0.196,1.235 -0.294,1.852c0.167,1.031 0.333,2.062 0.5,3.093l-1.453,0.737c-1.264,-2.468 -1.307,-2.18 -2.633,-4.788c0.413,-1.416 1.18,-7.681 3.277,-4.816c0.63,0.86 0.376,0.914 0.603,3.922Z" style="fill:#d4dce1;"/><path d="M71.345,29.612c2.108,5.891 1.832,5.836 1.078,11.99c-5.022,0.152 -1.375,-11.074 -1.078,-11.99Z" style="fill:#6f8399;"/><path d="M88.853,145.15l0.326,2.838c-0.019,0.582 -0.133,4.15 -0.471,7.262c-0.702,-0.762 -1.405,-1.524 -2.107,-2.287c-1.695,-4.202 -0.438,-4.117 0.799,-7.076l1.453,-0.737Z" style="fill:#d1dade;"/><path d="M123.305,128.085l2.566,0.485c0.455,1.715 0.315,1.732 3.813,4.611c-3.941,2.391 -3.989,2.728 -4.442,2.327c-1.003,-0.887 -0.628,-1.077 -1.937,-7.422Z" style="fill:#ebf0f0;"/><path d="M66.818,67.686c-2.593,6.971 -4.526,5.645 -4.53,5.099c-0.005,-0.581 0.425,-0.363 2.398,-6.85c0.064,-0.211 1.498,-2.266 2.132,1.751Z" style="fill:#a2a9aa;"/><path d="M64.888,94.886c-3.278,13.703 -2.986,-3.404 -2.455,-3.758c0.299,-0.199 1.241,-0.827 2.455,3.758Z" style="fill:#adafb1;"/><path d="M86.601,152.964c0.702,0.762 1.405,1.524 2.107,2.287c-0.661,5.001 -0.68,4.902 -0.721,5.792c-5.523,-5.725 -2.197,-6.524 -1.386,-8.078Z" style="fill:#c9d1d5;"/><path d="M66.13,121.026c0.925,6.765 -1.355,6.036 -1.795,5.825c-0.637,-0.305 -1.274,-10.932 1.795,-5.825Z" style="fill:#b3b6b7;"/><path d="M69.825,104.903c-2.75,11.197 -2.443,-1.706 -2.41,-1.952c0.033,-0.246 1.533,-2.177 2.41,1.952Z" style="fill:#a8abad;"/><path d="M125.872,128.569c3.154,1.137 2.95,1.208 5.87,2.895l-2.057,1.716c-3.498,-2.879 -3.358,-2.896 -3.813,-4.611Z" style="fill:#b9bdc0;"/><path d="M61.984,134.066c0.678,-9.234 2.481,0.739 2.504,0.952c1.064,10.109 -2.475,-0.74 -2.504,-0.952Z" style="fill:#a5a8a9;"/><path d="M82.15,46.677c2.749,2.235 1.553,2.742 0.261,6.014c-0.02,-0.057 0.005,-0.006 -2.554,-4.212c0.764,-0.601 1.528,-1.202 2.293,-1.802Z" style="fill:#acb6bc;"/><path d="M80.913,111.936c0.466,-2.461 -0.158,-3.775 1.367,-2.877c2.172,1.28 -0.338,8.76 -1.367,2.877Z" style="fill:#a9aaaa;"/><path d="M83.484,101.187c-0.279,-0.25 -0.791,-0.094 -1.07,-0.344c-1.021,-0.912 0.57,-6.035 1.998,-5.06c1.965,1.342 -0.674,5.047 -0.929,5.404Z" style="fill:#b4b6b7;"/><path d="M78.649,41.552c0.571,1.207 0.098,1.021 -0.48,2.117c0.16,-0.706 0.32,-1.412 0.48,-2.117Z" style="fill:#808fa0;"/></g></svg>